<?xml version="1.0" encoding="UTF-8"?>
<svg id="b" data-name="Layer 2" xmlns="http://www.w3.org/2000/svg" width="202.39" height="50.63" viewBox="0 0 202.39 50.63">
  <defs>
    <style>
      .d {
        fill: #fff;
      }
    </style>
  </defs>
  <g id="c" data-name="Layer 1">
    <path class="d" d="M74.96,0v13.18l-.24-.05c-1.16-.22-2.37-.34-3.59-.34-2.34,0-4.67.4-6.91,1.2-2.24.79-4.27,2.01-6.02,3.63-1.75,1.61-3.18,3.62-4.26,5.95-1.08,2.33-1.62,5.09-1.62,8.17,0,3.28.59,6.15,1.76,8.53,1.17,2.38,2.72,4.36,4.61,5.88,1.89,1.52,4.05,2.66,6.41,3.38,2.37.73,4.78,1.09,7.17,1.09,2.92,0,5.61-.26,8.01-.78,2.35-.51,4.7-1.27,6.96-2.28V0h-12.27ZM74.96,39.8l-.16.04c-.87.2-1.77.3-2.68.3-1.31,0-2.56-.31-3.73-.91-1.17-.61-2.12-1.55-2.83-2.79-.7-1.24-1.06-2.84-1.06-4.77s.34-3.61,1.02-4.87c.68-1.27,1.64-2.21,2.83-2.79,1.18-.58,2.52-.88,3.97-.88.84,0,1.67.1,2.47.29l.16.04v16.33ZM124.6,21.24c-1.68-2.8-3.95-4.95-6.76-6.4-1.4-.73-2.89-1.27-4.44-1.64-1.55-.36-3.18-.55-4.86-.55-3.37,0-6.5.73-9.31,2.19-2.8,1.45-5.09,3.6-6.79,6.41-1.71,2.8-2.57,6.29-2.57,10.36s.86,7.56,2.57,10.36c1.7,2.8,3.99,4.97,6.79,6.44,2.81,1.47,5.94,2.22,9.31,2.22s6.44-.75,9.27-2.22c2.83-1.47,5.11-3.64,6.79-6.44,1.68-2.8,2.53-6.29,2.53-10.37s-.85-7.56-2.53-10.37ZM114.17,36.4c-.3.63-.66,1.19-1.06,1.66-.4.47-.84.86-1.33,1.17-.98.61-2.07.92-3.24.92s-2.26-.31-3.24-.92c-.98-.61-1.78-1.56-2.39-2.83-.6-1.25-.91-2.86-.91-4.79s.3-3.59.91-4.83c.61-1.24,1.41-2.18,2.39-2.79.98-.61,2.07-.92,3.24-.92s2.26.31,3.24.92c.98.61,1.78,1.55,2.39,2.79.6,1.24.91,2.86.91,4.83s-.31,3.53-.91,4.79ZM163.19,23.11c-1-2.31-2.39-4.25-4.12-5.77-1.73-1.52-3.66-2.65-5.74-3.38-2.08-.73-4.23-1.09-6.38-1.09-1.64,0-3.18.17-4.58.51l-.25.06V0h-12.34v47.64c2.22,1.01,4.54,1.76,6.89,2.25,2.4.49,5.04.74,7.86.74,2.53,0,5.03-.41,7.45-1.23,2.41-.82,4.6-2.05,6.52-3.67,1.91-1.61,3.44-3.64,4.54-6.02,1.1-2.38,1.66-5.21,1.66-8.39s-.51-5.9-1.51-8.22ZM151.51,36.34c-.38.63-.81,1.19-1.31,1.67-.5.48-1.05.89-1.66,1.22-1.21.65-2.52.99-3.87.99-.79,0-1.6-.1-2.4-.31l-.15-.04v-16.33l.16-.04c.86-.2,1.79-.29,2.75-.29,1.36,0,2.62.29,3.76.88,1.15.59,2.08,1.5,2.79,2.72.7,1.21,1.06,2.78,1.06,4.66,0,1.97-.38,3.62-1.13,4.88ZM200.94,22.89c-.48-1.09-1.05-2.09-1.69-3.02-.65-.92-1.37-1.76-2.18-2.51-1.61-1.49-3.46-2.64-5.49-3.41-2.03-.77-4.18-1.16-6.37-1.16-3.23,0-6.23.77-8.95,2.29-2.71,1.52-4.91,3.7-6.55,6.48-1.64,2.78-2.47,6.11-2.47,9.9,0,3,.55,5.71,1.62,8.07,1.08,2.36,2.58,4.37,4.47,5.98,1.89,1.61,4.11,2.86,6.59,3.7,2.48.84,5.22,1.27,8.13,1.27,2.11,0,4.2-.24,6.22-.71,1.98-.46,3.89-1.15,5.68-2.06v-9.67c-1.84.84-3.62,1.51-5.3,1.98-1.77.5-3.61.76-5.47.76-2.01,0-3.8-.34-5.32-1.02-1.52-.68-2.75-1.72-3.65-3.1-.27-.42-.51-.9-.71-1.43l-.1-.28h22.7c.04-.63.1-1.31.17-2.09.07-.79.11-1.61.11-2.4,0-2.85-.48-5.4-1.44-7.57ZM179.21,27.61l.07-.25c.13-.49.28-.93.45-1.31.61-1.36,1.41-2.38,2.39-3.04.98-.66,2.07-1,3.25-1,1.03,0,2.02.26,2.95.77.93.51,1.72,1.32,2.36,2.39.36.62.62,1.36.76,2.21l.04.24h-12.25ZM27.61,16.31l-9.14,22.69h10.98l3.85,10.99H0L20.7.54h14.4l20.63,49.45h-14.66l-13.46-33.68Z"/>
  </g>
</svg>
