<svg width="16" height="12" viewBox="0 0 16 12" fill="none" xmlns="http://www.w3.org/2000/svg">
<path d="M15.0001 5.00057H3.41406L5.70706 2.70757C5.80257 2.61532 5.87875 2.50498 5.93116 2.38297C5.98357 2.26097 6.01115 2.12975 6.01231 1.99697C6.01346 1.86419 5.98816 1.73251 5.93788 1.60962C5.8876 1.48672 5.81335 1.37507 5.71945 1.28117C5.62556 1.18728 5.51391 1.11303 5.39101 1.06275C5.26812 1.01247 5.13644 0.987165 5.00366 0.988319C4.87088 0.989473 4.73966 1.01706 4.61765 1.06947C4.49565 1.12188 4.38531 1.19806 4.29306 1.29357L0.293058 5.29357C0.199873 5.38622 0.125924 5.49638 0.0754625 5.61772C0.0250011 5.73905 -0.000976562 5.86916 -0.000976562 6.00057C-0.000976562 6.13198 0.0250011 6.26209 0.0754625 6.38342C0.125924 6.50476 0.199873 6.61492 0.293058 6.70757L4.29306 10.7076C4.38531 10.8031 4.49565 10.8793 4.61765 10.9317C4.73966 10.9841 4.87088 11.0117 5.00366 11.0128C5.13644 11.014 5.26812 10.9887 5.39101 10.9384C5.51391 10.8881 5.62556 10.8139 5.71945 10.72C5.81335 10.6261 5.8876 10.5144 5.93788 10.3915C5.98816 10.2686 6.01346 10.1369 6.01231 10.0042C6.01115 9.87139 5.98357 9.74017 5.93116 9.61817C5.87875 9.49616 5.80257 9.38582 5.70706 9.29357L3.41406 7.00057H15.0001C15.2653 7.00057 15.5196 6.89521 15.7072 6.70768C15.8947 6.52014 16.0001 6.26579 16.0001 6.00057C16.0001 5.73535 15.8947 5.481 15.7072 5.29346C15.5196 5.10593 15.2653 5.00057 15.0001 5.00057Z" fill="#444444"/>
</svg>
