<svg width="19" height="16" viewBox="0 0 19 16" fill="none" xmlns="http://www.w3.org/2000/svg">
<path d="M13.696 0.0168483C11.57 -0.150152 10.101 0.956848 9.25 1.89685C8.398 0.956848 6.92 -0.141152 4.805 0.0168483C2.205 0.215848 0.25 2.46685 0.25 5.14785C0.25 9.91285 4.23 13.1838 7.622 15.5008C8.109 15.8338 8.68 15.9998 9.25 15.9998C9.82 15.9998 10.39 15.8328 10.878 15.4998C14.268 13.1838 18.25 9.91385 18.25 5.14785C18.25 2.44985 16.294 0.215848 13.696 0.0168483ZM9.748 13.8468C9.60101 13.9463 9.42763 13.9995 9.25015 13.9997C9.07267 13.9999 8.89919 13.947 8.752 13.8478C5.758 11.8028 2.313 8.96185 2.25 5.11385C2.223 3.46385 3.386 2.12985 4.957 2.00985C5.03983 2.00318 5.1229 1.99984 5.206 1.99985C7.254 1.99985 8.317 3.96585 8.36 4.04885C8.53 4.37985 8.872 4.58685 9.245 4.58885C9.621 4.58885 9.963 4.38085 10.135 4.05285C10.184 3.96285 11.311 1.83185 13.543 2.01085C15.113 2.13085 16.276 3.46485 16.249 5.11385C16.186 8.96185 12.741 11.8028 9.747 13.8468H9.748Z" fill="currentColor"/>
</svg>
