<svg width="19" height="18" viewBox="0 0 19 18" fill="none" xmlns="http://www.w3.org/2000/svg">
<path d="M18.253 9.003V13.003C18.253 15.76 16.01 18.003 13.253 18.003H11.253C10.9878 18.003 10.7334 17.8976 10.5459 17.7101C10.3584 17.5226 10.253 17.2682 10.253 17.003C10.253 16.7378 10.3584 16.4834 10.5459 16.2959C10.7334 16.1084 10.9878 16.003 11.253 16.003H13.253C14.907 16.003 16.253 14.657 16.253 13.003V9.003C16.2525 8.20672 15.9359 7.4432 15.3729 6.88014C14.8098 6.31709 14.0463 6.00053 13.25 6H9.253C8.187 6 7.193 6.573 6.655 7.496C6.51851 7.71889 6.30018 7.87949 6.04675 7.94341C5.79332 8.00733 5.52494 7.96948 5.29907 7.83799C5.0732 7.70649 4.90778 7.49178 4.83824 7.23984C4.7687 6.9879 4.80056 6.71874 4.927 6.49C5.36844 5.73386 5.9999 5.10627 6.75874 4.66949C7.51759 4.23271 8.37744 4.00192 9.253 4H12.067C11.8612 3.41669 11.48 2.91133 10.9757 2.55325C10.4713 2.19518 9.86854 2.00192 9.25 2H5.25C3.596 2 2.25 3.346 2.25 5V6C2.25 6.26522 2.14464 6.51957 1.95711 6.70711C1.76957 6.89464 1.51522 7 1.25 7C0.984784 7 0.73043 6.89464 0.542893 6.70711C0.355357 6.51957 0.25 6.26522 0.25 6V5C0.25 2.243 2.493 0 5.25 0H9.25C11.697 0 13.73 1.769 14.16 4.093C16.484 4.523 18.253 6.556 18.253 9.003ZM6.953 10.289C6.86018 10.1942 6.74941 10.1187 6.62715 10.0671C6.50489 10.0155 6.37358 9.98879 6.24087 9.98845C6.10817 9.98811 5.97673 10.0142 5.8542 10.0652C5.73168 10.1161 5.62052 10.191 5.52722 10.2854C5.43392 10.3797 5.36033 10.4917 5.31074 10.6148C5.26116 10.7379 5.23657 10.8696 5.23841 11.0023C5.24025 11.135 5.26849 11.266 5.32147 11.3877C5.37445 11.5094 5.45111 11.6193 5.547 11.711L6.85 12.999L5.089 12.998C3.497 12.936 2.25 11.618 2.25 10C2.25 9.73478 2.14464 9.48043 1.95711 9.29289C1.76957 9.10536 1.51522 9 1.25 9C0.984784 9 0.73043 9.10536 0.542893 9.29289C0.355357 9.48043 0.25 9.73478 0.25 10C0.25 12.697 2.342 14.892 5.013 14.996L6.822 15L5.539 16.298C5.44416 16.3908 5.36874 16.5016 5.31714 16.6238C5.26554 16.7461 5.23879 16.8774 5.23845 17.0101C5.23811 17.1428 5.26419 17.2743 5.31516 17.3968C5.36614 17.5193 5.44099 17.6305 5.53535 17.7238C5.62972 17.8171 5.74171 17.8907 5.8648 17.9403C5.9879 17.9898 6.11963 18.0144 6.25232 18.0126C6.38501 18.0107 6.51601 17.9825 6.63768 17.9295C6.75935 17.8766 6.86926 17.7999 6.961 17.704L9.961 14.67C10.0535 14.5768 10.1268 14.4662 10.1765 14.3445C10.2262 14.2229 10.2514 14.0927 10.2506 13.9613C10.2499 13.83 10.2232 13.7 10.1721 13.579C10.1211 13.458 10.0466 13.3482 9.953 13.256L6.953 10.29V10.289Z" fill="currentColor"/>
</svg>
