<svg xmlns="http://www.w3.org/2000/svg" width="18" height="18" viewBox="0 0 18 18" fill="none">
    <path d="M7.70757 4.29308C7.61532 4.19757 7.50498 4.12139 7.38297 4.06898C7.26097 4.01657 7.12975 3.98898 6.99697 3.98783C6.86419 3.98668 6.73251 4.01198 6.60962 4.06226C6.48672 4.11254 6.37507 4.18679 6.28117 4.28069C6.18728 4.37458 6.11303 4.48623 6.06275 4.60913C6.01247 4.73202 5.98717 4.8637 5.98832 4.99648C5.98947 5.12926 6.01706 5.26048 6.06947 5.38249C6.12188 5.50449 6.19806 5.61483 6.29357 5.70708L9.58657 9.00008L6.29357 12.2931C6.19806 12.3853 6.12188 12.4957 6.06947 12.6177C6.01706 12.7397 5.98947 12.8709 5.98832 13.0037C5.98717 13.1365 6.01247 13.2681 6.06275 13.391C6.11303 13.5139 6.18728 13.6256 6.28117 13.7195C6.37507 13.8134 6.48672 13.8876 6.60962 13.9379C6.73251 13.9882 6.86419 14.0135 6.99697 14.0123C7.12975 14.0112 7.26097 13.9836 7.38297 13.9312C7.50498 13.8788 7.61532 13.8026 7.70757 13.7071L11.7076 9.70708C11.895 9.51955 12.0004 9.26525 12.0004 9.00008C12.0004 8.73492 11.895 8.48061 11.7076 8.29308L7.70757 4.29308Z" fill="#000"/>
</svg>