<svg width="19" height="16" viewBox="0 0 19 16" fill="none" xmlns="http://www.w3.org/2000/svg">
<path d="M17.75 9.87V5C17.75 2.243 15.507 0 12.75 0H6.75001C3.99301 0 1.75001 2.243 1.75001 5V9.87L1.25401 11.76C1.04884 12.2078 0.957899 12.6996 0.989311 13.1912C1.02072 13.6828 1.17351 14.1589 1.43401 14.577C1.70154 15.0132 2.07683 15.3733 2.52377 15.6225C2.97072 15.8717 3.47428 16.0017 3.98601 16H15.514C16.0257 16.0017 16.5293 15.8717 16.9762 15.6225C17.4232 15.3733 17.7985 15.0132 18.066 14.577C18.3263 14.159 18.479 13.6831 18.5104 13.1917C18.5418 12.7002 18.451 12.2087 18.246 11.761L17.75 9.87ZM3.75001 5C3.75001 3.346 5.09601 2 6.75001 2H12.75C14.404 2 15.75 3.346 15.75 5V9H3.75001V5ZM16.365 13.525C16.2765 13.6709 16.1516 13.7914 16.0027 13.8746C15.8537 13.9579 15.6857 14.0011 15.515 14H3.98401C3.81335 14.0011 3.64533 13.9579 3.49635 13.8746C3.34738 13.7914 3.22253 13.6709 3.13401 13.525C3.0434 13.3805 2.9918 13.215 2.98427 13.0447C2.97673 12.8743 3.01351 12.7049 3.09101 12.553C3.12101 12.491 3.14601 12.426 3.16401 12.359L3.52001 11H7.75001C7.48479 11 7.23044 11.1054 7.0429 11.2929C6.85536 11.4804 6.75001 11.7348 6.75001 12C6.75001 12.2652 6.85536 12.5196 7.0429 12.7071C7.23044 12.8946 7.48479 13 7.75001 13H11.75C12.0152 13 12.2696 12.8946 12.4571 12.7071C12.6446 12.5196 12.75 12.2652 12.75 12C12.75 11.7348 12.6446 11.4804 12.4571 11.2929C12.2696 11.1054 12.0152 11 11.75 11H15.979L16.335 12.36C16.353 12.426 16.377 12.491 16.408 12.553C16.633 13.003 16.453 13.383 16.365 13.525Z" fill="currentColor"/>
</svg>
