<svg width="17" height="17" viewBox="0 0 17 17" fill="none" xmlns="http://www.w3.org/2000/svg">
<path d="M5.66663 17H11.6666C14.4236 17 16.6666 14.757 16.6666 12V6.82801C16.6666 6.02801 16.3546 5.27301 15.7876 4.70701L11.9596 0.87901C11.6816 0.599495 11.3509 0.377888 10.9867 0.227009C10.6224 0.0761306 10.2319 -0.00102359 9.83763 1.02539e-05H5.66663C2.90963 1.02539e-05 0.666626 2.24301 0.666626 5.00001V12C0.666626 14.757 2.90963 17 5.66663 17ZM10.6666 2.41401L14.2526 6.00001H11.6666C11.1156 6.00001 10.6666 5.55201 10.6666 5.00001V2.41401ZM2.66663 5.00001C2.66663 3.34601 4.01263 2.00001 5.66663 2.00001H8.66663V5.00001C8.66663 6.65401 10.0126 8.00001 11.6666 8.00001H14.6666V12C14.6666 13.654 13.3206 15 11.6666 15H5.66663C4.01263 15 2.66663 13.654 2.66663 12V5.00001Z" fill="#98009D"/>
</svg>
