<?xml version="1.0" encoding="UTF-8"?>
<svg xmlns="http://www.w3.org/2000/svg" xmlns:xlink="http://www.w3.org/1999/xlink" width="26px" height="25px" viewBox="0 0 25 25" version="1.1">
<g id="surface1">
<path style=" stroke:none;fill-rule:evenodd;fill:rgb(14.117647%,16.078431%,18.431373%);fill-opacity:1;" d="M 12.460938 0 C 5.570312 0 0 5.730469 0 12.816406 C 0 18.484375 3.570312 23.277344 8.523438 24.976562 C 9.140625 25.101562 9.367188 24.699219 9.367188 24.359375 C 9.367188 24.0625 9.347656 23.046875 9.347656 21.984375 C 5.878906 22.746094 5.160156 20.457031 5.160156 20.457031 C 4.601562 18.96875 3.777344 18.589844 3.777344 18.589844 C 2.640625 17.804688 3.859375 17.804688 3.859375 17.804688 C 5.117188 17.886719 5.777344 19.121094 5.777344 19.121094 C 6.890625 21.070312 8.6875 20.519531 9.410156 20.179688 C 9.511719 19.351562 9.84375 18.78125 10.191406 18.460938 C 7.429688 18.164062 4.519531 17.0625 4.519531 12.136719 C 4.519531 10.738281 5.015625 9.589844 5.796875 8.699219 C 5.675781 8.382812 5.242188 7.066406 5.921875 5.304688 C 5.921875 5.304688 6.972656 4.964844 9.347656 6.621094 C 10.363281 6.339844 11.410156 6.199219 12.460938 6.195312 C 13.515625 6.195312 14.585938 6.34375 15.578125 6.621094 C 17.953125 4.964844 19.003906 5.304688 19.003906 5.304688 C 19.683594 7.066406 19.25 8.382812 19.128906 8.699219 C 19.933594 9.589844 20.40625 10.738281 20.40625 12.136719 C 20.40625 17.0625 17.496094 18.144531 14.710938 18.460938 C 15.164062 18.863281 15.558594 19.628906 15.558594 20.839844 C 15.558594 22.558594 15.539062 23.9375 15.539062 24.359375 C 15.539062 24.699219 15.765625 25.101562 16.382812 24.976562 C 21.335938 23.277344 24.90625 18.484375 24.90625 12.816406 C 24.925781 5.730469 19.332031 0 12.460938 0 Z M 12.460938 0 "/>
</g>
</svg>
