<svg width="19" height="18" viewBox="0 0 19 18" fill="none" xmlns="http://www.w3.org/2000/svg">
<path d="M13.49 17.9898C13.145 17.9898 12.799 17.9048 12.48 17.7298L9.25 15.9578L6.02 17.7298C5.308 18.1198 4.457 18.0698 3.795 17.6018C3.45711 17.3624 3.19398 17.0322 3.0361 16.6493C2.87823 16.2665 2.83208 15.8468 2.903 15.4388L3.529 11.6268L0.881998 8.93381C0.595311 8.64173 0.39536 8.27579 0.304429 7.87675C0.213498 7.47771 0.235159 7.06126 0.366998 6.67381C0.489359 6.29702 0.713913 5.96158 1.01565 5.70486C1.31739 5.44815 1.68447 5.28023 2.076 5.21981L5.698 4.66981L7.326 1.22681C7.682 0.475812 8.42 0.0078125 9.25 0.0078125C10.08 0.0078125 10.818 0.474812 11.174 1.22581L12.803 4.66981L16.424 5.21981C16.8157 5.28006 17.183 5.4479 17.4849 5.70463C17.7869 5.96135 18.0116 6.29688 18.134 6.67381C18.2658 7.06126 18.2875 7.47771 18.1966 7.87675C18.1056 8.27579 17.9057 8.64173 17.619 8.93381L14.971 11.6268L15.597 15.4388C15.6679 15.8468 15.6218 16.2665 15.4639 16.6493C15.306 17.0322 15.0429 17.3624 14.705 17.6018C14.3504 17.8541 13.9262 17.9901 13.491 17.9908L13.49 17.9898ZM9.25 13.9568C9.581 13.9568 9.912 14.0398 10.214 14.2058L13.442 15.9768C13.465 15.9918 13.496 16.0058 13.55 15.9698C13.586 15.9448 13.644 15.8828 13.625 15.7638L12.999 11.9518C12.895 11.3248 13.099 10.6788 13.546 10.2248L16.192 7.53281C16.272 7.45081 16.25 7.34881 16.236 7.30881C16.203 7.20881 16.143 7.19881 16.124 7.19681L12.502 6.64681C12.1776 6.59842 11.8701 6.47057 11.607 6.27464C11.3439 6.07872 11.1333 5.82079 10.994 5.52381L9.365 2.08181C9.345 2.03681 9.155 2.03681 9.135 2.08181L7.506 5.52481C7.36618 5.82144 7.15529 6.07895 6.89205 6.27451C6.62881 6.47006 6.32136 6.5976 5.997 6.64581L2.377 7.19581C2.357 7.19881 2.297 7.20881 2.264 7.30781C2.2496 7.34576 2.24619 7.38699 2.25415 7.42678C2.26211 7.46658 2.28112 7.50332 2.309 7.53281L4.954 10.2238C5.401 10.6778 5.604 11.3238 5.501 11.9508L4.875 15.7628C4.855 15.8828 4.915 15.9438 4.95 15.9688C5.004 16.0058 5.033 15.9918 5.059 15.9758L8.287 14.2038C8.589 14.0388 8.919 13.9568 9.25 13.9568Z" fill="currentColor"/>
</svg>
