<svg width="8" height="6" viewBox="0 0 8 6" fill="none" xmlns="http://www.w3.org/2000/svg">
<path d="M4.5499 0.894715C4.40404 0.748904 4.20625 0.666992 4.00001 0.666992C3.79377 0.666992 3.59597 0.748904 3.45012 0.894715L0.339009 4.00583C0.264723 4.07757 0.20547 4.1634 0.164708 4.25829C0.123945 4.35318 0.102489 4.45524 0.101592 4.55851C0.100694 4.66179 0.120373 4.7642 0.159481 4.85979C0.198588 4.95538 0.256341 5.04222 0.329368 5.11524C0.402396 5.18827 0.489236 5.24602 0.584822 5.28513C0.680408 5.32424 0.782826 5.34392 0.886099 5.34302C0.989372 5.34212 1.09143 5.32067 1.18632 5.27991C1.28122 5.23914 1.36704 5.17989 1.43879 5.1056L4.00001 2.54438L6.56123 5.1056C6.6333 5.17808 6.71898 5.2356 6.81335 5.27485C6.90772 5.31409 7.00891 5.3343 7.11112 5.3343C7.21333 5.3343 7.31452 5.31409 7.40889 5.27485C7.50326 5.2356 7.58894 5.17808 7.66101 5.1056C7.80682 4.95975 7.88873 4.76195 7.88873 4.55572C7.88873 4.34948 7.80682 4.15168 7.66101 4.00583L4.5499 0.894715Z" fill="#222222"/>
</svg>
