<svg width="24" height="24" viewBox="0 0 24 24" fill="none" xmlns="http://www.w3.org/2000/svg">
<g clip-path="url(#clip0_248_1901)">
<path d="M4 5.99967V21.9997C4 22.1765 4.07024 22.3461 4.19526 22.4711C4.32029 22.5961 4.48986 22.6663 4.66667 22.6663H22C22.1768 22.6663 22.3464 22.5961 22.4714 22.4711C22.5964 22.3461 22.6667 22.1765 22.6667 21.9997V5.99967C22.6667 5.82286 22.5964 5.65329 22.4714 5.52827C22.3464 5.40325 22.1768 5.33301 22 5.33301H4.66667C4.48986 5.33301 4.32029 5.40325 4.19526 5.52827C4.07024 5.65329 4 5.82286 4 5.99967ZM21.3333 21.333H5.33333V9.33301H21.3333V21.333Z" fill="currentColor"/>
<path d="M2.66665 3.99967H20V1.99967C20 1.82286 19.9297 1.65329 19.8047 1.52827C19.6797 1.40325 19.5101 1.33301 19.3333 1.33301H1.99998C1.82317 1.33301 1.6536 1.40325 1.52858 1.52827C1.40355 1.65329 1.33331 1.82286 1.33331 1.99967V17.9997C1.33331 18.1765 1.40355 18.3461 1.52858 18.4711C1.6536 18.5961 1.82317 18.6663 1.99998 18.6663H2.66665V3.99967Z" fill="currentColor"/>
<path d="M4 5.99967V21.9997C4 22.1765 4.07024 22.3461 4.19526 22.4711C4.32029 22.5961 4.48986 22.6663 4.66667 22.6663H22C22.1768 22.6663 22.3464 22.5961 22.4714 22.4711C22.5964 22.3461 22.6667 22.1765 22.6667 21.9997V5.99967C22.6667 5.82286 22.5964 5.65329 22.4714 5.52827C22.3464 5.40325 22.1768 5.33301 22 5.33301H4.66667C4.48986 5.33301 4.32029 5.40325 4.19526 5.52827C4.07024 5.65329 4 5.82286 4 5.99967ZM21.3333 21.333H5.33333V9.33301H21.3333V21.333Z" fill="currentColor"/>
<path d="M2.66665 3.99967H20V1.99967C20 1.82286 19.9297 1.65329 19.8047 1.52827C19.6797 1.40325 19.5101 1.33301 19.3333 1.33301H1.99998C1.82317 1.33301 1.6536 1.40325 1.52858 1.52827C1.40355 1.65329 1.33331 1.82286 1.33331 1.99967V17.9997C1.33331 18.1765 1.40355 18.3461 1.52858 18.4711C1.6536 18.5961 1.82317 18.6663 1.99998 18.6663H2.66665V3.99967Z" fill="currentColor"/>
</g>
<defs>
<clipPath id="clip0_248_1901">
<rect width="24" height="24" fill="white"/>
</clipPath>
</defs>
</svg>
