<svg width="19" height="17" viewBox="0 0 19 17" fill="none" xmlns="http://www.w3.org/2000/svg">
<path d="M8.25 7.00001C8.25 9.20601 10.044 11 12.25 11C14.456 11 16.25 9.20601 16.25 7.00001C16.25 4.79401 14.456 3.00001 12.25 3.00001C10.044 3.00001 8.25 4.79401 8.25 7.00001ZM12.25 5.00001C13.353 5.00001 14.25 5.89701 14.25 7.00001C14.25 8.10301 13.353 9 12.25 9C11.147 9 10.25 8.10301 10.25 7.00001C10.25 5.89701 11.147 5.00001 12.25 5.00001ZM12.25 12C8.64 12 6.25 14.94 6.25 16C6.25139 16.2243 6.3281 16.4417 6.46781 16.6172C6.60752 16.7927 6.80215 16.9162 7.02045 16.9679C7.23876 17.0196 7.46809 16.9964 7.67165 16.9021C7.87521 16.8078 8.04121 16.6479 8.143 16.448C8.89 14.961 10.502 14 12.25 14C13.997 14 15.608 14.96 16.356 16.448C16.457 16.6495 16.623 16.8109 16.8273 16.9062C17.0315 17.0015 17.2619 17.025 17.4812 16.9729C17.7004 16.9208 17.8956 16.7961 18.0352 16.6192C18.1747 16.4423 18.2504 16.2234 18.25 15.998C18.25 14.976 15.934 12 12.25 12ZM6.25 8C6.51522 8 6.76957 7.89465 6.95711 7.70711C7.14464 7.51958 7.25 7.26522 7.25 7.00001C7.25 6.73479 7.14464 6.48043 6.95711 6.2929C6.76957 6.10536 6.51522 6.00001 6.25 6.00001C5.147 6.00001 4.25 5.10301 4.25 4.00001C4.25 2.89701 5.147 2.00001 6.25 2.00001C6.847 2.00001 7.407 2.263 7.788 2.722C7.87191 2.82312 7.97492 2.90672 8.09115 2.96803C8.20737 3.02934 8.33453 3.06715 8.46537 3.07932C8.59621 3.09148 8.72816 3.07776 8.85369 3.03893C8.97923 3.0001 9.09588 2.93692 9.197 2.853C9.29812 2.76909 9.38172 2.66608 9.44303 2.54986C9.50433 2.43363 9.54215 2.30647 9.55431 2.17564C9.56648 2.0448 9.55275 1.91285 9.51392 1.78731C9.47509 1.66178 9.41191 1.54512 9.328 1.44401C8.95301 0.991418 8.48265 0.627289 7.95054 0.37766C7.41844 0.128031 6.83775 -0.000928484 6.25 5.03218e-06C4.044 5.03218e-06 2.25 1.79401 2.25 4.00001C2.25 6.20601 4.044 8 6.25 8ZM7.333 11.1C7.823 11.1 8.333 10.707 8.333 10.099C8.334 9.05 7.124 9 6.25 9C2.641 9 0.25 11.94 0.25 13C0.250955 13.2247 0.327477 13.4425 0.467251 13.6184C0.607024 13.7944 0.801921 13.9181 1.02058 13.9699C1.23923 14.0216 1.46893 13.9982 1.67271 13.9036C1.87648 13.8089 2.04248 13.6485 2.144 13.448C2.89 11.961 4.502 11 6.25 11C6.88 11 7.114 11.1 7.333 11.1Z" fill="currentColor"/>
</svg>
