<svg id="Layer_1" data-name="Layer 1" xmlns="http://www.w3.org/2000/svg" xmlns:xlink="http://www.w3.org/1999/xlink" viewBox="0 0 150 160"><defs><style>.cls-1,.cls-18,.cls-7{fill:#fff;}.cls-1{fill-rule:evenodd;}.cls-2{mask:url(#mask);}.cls-3{fill:#4285f4;}.cls-4{fill:url(#linear-gradient);}.cls-5{fill:#f1f1f1;}.cls-6{fill:#a1c2fa;}.cls-28,.cls-7,.cls-8{fill-opacity:0.2;}.cls-8,.cls-9{fill:#1a237e;}.cls-29,.cls-9{fill-opacity:0.1;}.cls-10{fill:url(#radial-gradient);}.cls-11{fill:#41a5ee;}.cls-12{fill:#2b7cd3;}.cls-13{fill:#185abd;}.cls-14{fill:#103f91;}.cls-15,.cls-16{isolation:isolate;}.cls-15{opacity:0.1;}.cls-16{opacity:0.2;}.cls-17{fill:url(#linear-gradient-2);}.cls-19{fill:#185c37;}.cls-20{fill:#21a366;}.cls-21{fill:#107c41;}.cls-22{fill:url(#linear-gradient-3);}.cls-23{fill:#33c481;}.cls-24{mask:url(#mask-8);}.cls-25{fill:#0f9d58;}.cls-26{fill:url(#linear-gradient-4);}.cls-27{fill:#87ceac;}.cls-28,.cls-29{fill:#263238;}.cls-30{fill:url(#radial-gradient-2);}.cls-31{fill:none;}</style><mask id="mask" x="20.66" y="20" width="38.82" height="53.68" maskUnits="userSpaceOnUse"><g id="mask-2"><path id="path-1" class="cls-1" d="M44.92,20H24.29a3.66,3.66,0,0,0-3.63,3.66V70a3.65,3.65,0,0,0,3.63,3.66H55.83A3.66,3.66,0,0,0,59.47,70V34.64Z"/></g></mask><linearGradient id="linear-gradient" x1="-568.49" y1="445.44" x2="-568.49" y2="444.69" gradientTransform="matrix(16.34, 0, 0, -16.43, 9339.72, 7352.11)" gradientUnits="userSpaceOnUse"><stop offset="0" stop-color="#1a237e" stop-opacity="0.2"/><stop offset="1" stop-color="#1a237e" stop-opacity="0.02"/></linearGradient><radialGradient id="radial-gradient" cx="-593.62" cy="458.11" r="1.33" gradientTransform="matrix(47, 0, 0, -47, 27922, 21552.49)" gradientUnits="userSpaceOnUse"><stop offset="0" stop-color="#fff" stop-opacity="0.1"/><stop offset="1" stop-color="#fff" stop-opacity="0"/></radialGradient><linearGradient id="linear-gradient-2" x1="77.24" y1="-953.84" x2="96.5" y2="-920.47" gradientTransform="translate(0 984)" gradientUnits="userSpaceOnUse"><stop offset="0" stop-color="#2368c4"/><stop offset="0.5" stop-color="#1a5dbe"/><stop offset="1" stop-color="#1146ac"/></linearGradient><linearGradient id="linear-gradient-3" x1="77.24" y1="-1267.53" x2="96.5" y2="-1234.16" gradientTransform="translate(0 1364)" gradientUnits="userSpaceOnUse"><stop offset="0" stop-color="#18884f"/><stop offset="0.5" stop-color="#117e43"/><stop offset="1" stop-color="#0b6631"/></linearGradient><mask id="mask-8" x="20.66" y="86.25" width="39.09" height="53.75" maskUnits="userSpaceOnUse"><g id="mask-2-3" data-name="mask-2"><path id="path-1-2" data-name="path-1" class="cls-1" d="M45.09,86.25H24.32a3.67,3.67,0,0,0-3.66,3.66v46.43A3.67,3.67,0,0,0,24.32,140H56.08a3.68,3.68,0,0,0,3.67-3.66V100.91Z"/></g></mask><linearGradient id="linear-gradient-4" x1="-568.81" y1="441.5" x2="-568.81" y2="440.74" gradientTransform="matrix(16.45, 0, 0, -16.45, 9411.1, 7362.88)" gradientUnits="userSpaceOnUse"><stop offset="0" stop-color="#263238" stop-opacity="0.2"/><stop offset="1" stop-color="#263238" stop-opacity="0.02"/></linearGradient><radialGradient id="radial-gradient-2" cx="-593.73" cy="456.78" r="1.33" gradientTransform="matrix(47.33, 0, 0, -47.33, 28125.17, 21708.45)" xlink:href="#radial-gradient"/></defs><g id="Page-1"><g id="Consumer-Apps-Docs-Large-VD-R8"><g id="Hero"><g id="Personal"><g id="Docs-icon"><g id="Group"><g id="Clipped"><g class="cls-2"><path id="Path" class="cls-3" d="M44.92,20H24.29a3.66,3.66,0,0,0-3.63,3.66V70a3.65,3.65,0,0,0,3.63,3.66H55.83A3.66,3.66,0,0,0,59.47,70V34.64L51,28.54Z"/></g></g><g id="Clipped-2" data-name="Clipped"><g class="cls-2"><polygon id="Path-2" data-name="Path" class="cls-4" points="45.98 33.57 59.47 47.14 59.47 34.64 45.98 33.57"/></g></g><g id="Clipped-3" data-name="Clipped"><g class="cls-2"><path id="Shape" class="cls-5" d="M30.36,59H49.77V56.6H30.36Zm0,4.88H44.92V61.48H30.36Zm0-17.08v2.44H49.77V46.84Zm0,7.32H49.77V51.72H30.36Z"/></g></g><g id="Clipped-4" data-name="Clipped"><g class="cls-2"><g id="Group-2" data-name="Group"><path id="Path-3-3" data-name="Path" class="cls-6" d="M44.92,20V31a3.64,3.64,0,0,0,3.63,3.66H59.47Z"/></g></g></g><g id="Clipped-5" data-name="Clipped"><g class="cls-2"><path id="Path-4" data-name="Path" class="cls-7" d="M24.29,20a3.66,3.66,0,0,0-3.63,3.66V24a3.65,3.65,0,0,1,3.63-3.66H44.92V20Z"/></g></g><g id="Clipped-6" data-name="Clipped"><g class="cls-2"><path id="Path-5-2" data-name="Path" class="cls-8" d="M55.83,73.38H24.29a3.66,3.66,0,0,1-3.63-3.66V70a3.65,3.65,0,0,0,3.63,3.66H55.83A3.66,3.66,0,0,0,59.47,70v-.3A3.66,3.66,0,0,1,55.83,73.38Z"/></g></g><g id="Clipped-7" data-name="Clipped"><g class="cls-2"><path id="Path-6-2" data-name="Path" class="cls-9" d="M48.55,34.64A3.64,3.64,0,0,1,44.92,31v.31A3.64,3.64,0,0,0,48.55,35H59.47v-.31Z"/></g></g></g><path id="Path-7" data-name="Path" class="cls-10" d="M44.92,20H24.29a3.66,3.66,0,0,0-3.63,3.66V70a3.65,3.65,0,0,0,3.63,3.66H55.83A3.66,3.66,0,0,0,59.47,70V34.64Z"/></g></g></g></g></g><path class="cls-11" d="M127.36,20H88a2.46,2.46,0,0,0-2.46,2.46h0v11l22.81,6.71,21.48-6.71v-11A2.46,2.46,0,0,0,127.36,20Z"/><path class="cls-12" d="M129.82,33.42H85.53V46.84l22.81,4,21.48-4Z"/><path class="cls-13" d="M85.53,46.84V60.26L107,63l22.82-2.69V46.84Z"/><path class="cls-14" d="M88,73.68h39.37a2.46,2.46,0,0,0,2.46-2.46h0v-11H85.53v11A2.46,2.46,0,0,0,88,73.68Z"/><path class="cls-15" d="M101.86,30.74H85.53V64.29h16.33a2.48,2.48,0,0,0,2.46-2.46V33.2A2.47,2.47,0,0,0,101.86,30.74Z"/><path class="cls-16" d="M100.51,32.08h-15V65.63h15A2.46,2.46,0,0,0,103,63.17V34.54A2.46,2.46,0,0,0,100.51,32.08Z"/><path class="cls-16" d="M100.51,32.08h-15V63h15A2.47,2.47,0,0,0,103,60.49V34.54A2.46,2.46,0,0,0,100.51,32.08Z"/><path class="cls-16" d="M99.17,32.08H85.53V63H99.17a2.47,2.47,0,0,0,2.46-2.46V34.54A2.46,2.46,0,0,0,99.17,32.08Z"/><path class="cls-17" d="M74.57,32.08h24.6a2.46,2.46,0,0,1,2.46,2.46v24.6a2.46,2.46,0,0,1-2.46,2.46H74.57a2.46,2.46,0,0,1-2.46-2.46V34.54A2.46,2.46,0,0,1,74.57,32.08Z"/><path class="cls-18" d="M82.2,51c0,.38.08.71.1,1h0c0-.27.07-.59.14-1l.18-1,2.59-11.16H88.6l2.69,11a14.53,14.53,0,0,1,.33,2.08h0a15.33,15.33,0,0,1,.28-2l2.14-11.06h3l-3.76,16H89.81l-2.55-10.6c-.07-.3-.15-.7-.25-1.19s-.15-.85-.17-1.07h0c0,.26-.09.64-.18,1.16s-.15.89-.2,1.13L84,54.83H80.4l-3.78-16h3.1L82.05,50C82.1,50.26,82.15,50.57,82.2,51Z"/><path class="cls-19" d="M108.34,111.82l-22.81-4v29.75A2.46,2.46,0,0,0,88,140h39.37a2.46,2.46,0,0,0,2.46-2.46h0v-11Z"/><path class="cls-20" d="M108.34,86.32H88a2.46,2.46,0,0,0-2.46,2.46h0v11l22.81,13.42,12.08,4,9.4-4V99.74Z"/><path class="cls-21" d="M85.53,99.74h22.81v13.42H85.53Z"/><path class="cls-15" d="M101.86,97.05H85.53v33.56h16.33a2.48,2.48,0,0,0,2.46-2.46V99.51A2.48,2.48,0,0,0,101.86,97.05Z"/><path class="cls-16" d="M100.51,98.4h-15V132h15a2.47,2.47,0,0,0,2.46-2.46V100.86A2.46,2.46,0,0,0,100.51,98.4Z"/><path class="cls-16" d="M100.51,98.4h-15v30.86h15A2.46,2.46,0,0,0,103,126.8V100.86A2.46,2.46,0,0,0,100.51,98.4Z"/><path class="cls-16" d="M99.17,98.4H85.53v30.86H99.17a2.46,2.46,0,0,0,2.46-2.46V100.86A2.46,2.46,0,0,0,99.17,98.4Z"/><path class="cls-22" d="M74.57,98.4h24.6a2.46,2.46,0,0,1,2.46,2.46v24.6a2.46,2.46,0,0,1-2.46,2.46H74.57a2.46,2.46,0,0,1-2.46-2.46v-24.6A2.46,2.46,0,0,1,74.57,98.4Z"/><path class="cls-18" d="M79.73,121.15l5.17-8-4.74-8H84l2.59,5.1c.24.49.4.85.49,1.08h0c.17-.38.34-.76.53-1.12l2.77-5.06h3.5L89,113.09l5,8.06H90.29l-3-5.59a5.17,5.17,0,0,1-.36-.75h0a3.69,3.69,0,0,1-.35.72l-3.08,5.62Z"/><path class="cls-23" d="M127.36,86.32h-19V99.74h21.48v-11a2.46,2.46,0,0,0-2.46-2.46Z"/><path class="cls-21" d="M108.34,113.16h21.48v13.42H108.34Z"/><g id="Page-1-2" data-name="Page-1"><g id="Consumer-Apps-Sheets-Large-VD-R8-"><g id="Hero-2" data-name="Hero"><g id="Personal-2" data-name="Personal"><g id="Sheets-icon"><g id="Group-3" data-name="Group"><g id="Clipped-8" data-name="Clipped"><g class="cls-24"><path id="Path-8-3" data-name="Path" class="cls-25" d="M45.09,86.25H24.32a3.67,3.67,0,0,0-3.66,3.66v46.43A3.67,3.67,0,0,0,24.32,140H56.08a3.68,3.68,0,0,0,3.67-3.66V100.91L51.2,94.8Z"/></g></g><g id="Clipped-9" data-name="Clipped"><g class="cls-24"><path id="Shape-2" data-name="Shape" class="cls-5" d="M30.43,112.51v17.72H50V112.51ZM39,127.78H32.87v-3H39Zm0-4.88H32.87v-3.06H39ZM39,118H32.87V115H39Zm8.55,9.77H41.42v-3h6.11Zm0-4.88H41.42v-3.06h6.11Zm0-4.89H41.42V115h6.11Z"/></g></g><g id="Clipped-10" data-name="Clipped"><g class="cls-24"><polygon id="Path-9" data-name="Path" class="cls-26" points="46.16 99.84 59.75 113.42 59.75 100.91 46.16 99.84"/></g></g><g id="Clipped-11" data-name="Clipped"><g class="cls-24"><g id="Group-4" data-name="Group"><path id="Path-10-3" data-name="Path" class="cls-27" d="M45.09,86.25v11a3.66,3.66,0,0,0,3.66,3.67h11Z"/></g></g></g><g id="Clipped-12" data-name="Clipped"><g class="cls-24"><path id="Path-11" data-name="Path" class="cls-7" d="M24.32,86.25a3.67,3.67,0,0,0-3.66,3.66v.31a3.67,3.67,0,0,1,3.66-3.67H45.09v-.3Z"/></g></g><g id="Clipped-13" data-name="Clipped"><g class="cls-24"><path id="Path-12-3" data-name="Path" class="cls-28" d="M56.08,139.69H24.32A3.66,3.66,0,0,1,20.66,136v.31A3.67,3.67,0,0,0,24.32,140H56.08a3.68,3.68,0,0,0,3.67-3.66V136A3.67,3.67,0,0,1,56.08,139.69Z"/></g></g><g id="Clipped-14" data-name="Clipped"><g class="cls-24"><path id="Path-13" data-name="Path" class="cls-29" d="M48.75,100.91a3.66,3.66,0,0,1-3.66-3.67v.31a3.66,3.66,0,0,0,3.66,3.66h11v-.3Z"/></g></g></g><path id="Path-14-3" data-name="Path" class="cls-30" d="M45.09,86.25H24.32a3.67,3.67,0,0,0-3.66,3.66v46.43A3.67,3.67,0,0,0,24.32,140H56.08a3.68,3.68,0,0,0,3.67-3.66V100.91Z"/></g></g></g></g></g><rect class="cls-31" x="-4.76" y="5" width="160" height="150" transform="translate(155.24 4.76) rotate(90)"/></svg>