<svg fill="none" height="19" viewBox="0 0 18 19" width="18" xmlns="http://www.w3.org/2000/svg"><path d="m16.64 1.29986c-.54-.374003-1.229-.460003-1.896-.208l-5.454 2.408h-4.966c-2.109 0-3.824 1.794-3.824 4 0 1.713 1.04 3.16604 2.489 3.73504l2.119 5.402c.27012.7123.81217 1.2882 1.5069 1.6009.69473.3128 1.48523.3367 2.1976.0666.71237-.2702 1.2883-.8122 1.601-1.5069.3127-.6948.3366-1.4853.0665-2.1976l-1.233-3.1c.04 0 5.55 2.43 5.55 2.43.3027.1127.6282.1506.9487.1106.3205-.0401.6266-.1569.8923-.3406.54-.373.861-.987.861-1.643v-9.11404c0-.656-.321-1.27-.859-1.643zm-12.317 8.2c-1.005 0-1.823-.897-1.823-2s.818-2 1.824-2h4.176v4zm4.191 6.62504c-.371.536-1.301.43-1.54-.205l-1.731-4.42h1.854l1.519 3.82c.05058.1321.06792.2746.05048.4149-.01744.1404-.06912.2743-.15048.3901zm1.986-6.27704v-4.696l5-2.209.053 9.13504z" fill="currentColor"/></svg>