<svg xmlns="http://www.w3.org/2000/svg" viewBox="0 0 24 24">
  <defs>
    <clipPath id="left-half"><rect x="0" y="0" width="10.5" height="24"/></clipPath>
    <clipPath id="right-half"><rect x="13.5" y="0" width="10.5" height="24"/></clipPath>
  </defs>
  <g clip-path="url(#left-half)" transform="translate(-1, 0)">
    <circle cx="12" cy="12" r="4"/>
    <path stroke-width="2" stroke-linecap="round" d="M12 5V3M12 21v-2M5 12H3M6.3 6.3 4.9 4.9M6.3 17.7l-1.4 1.4"/>
  </g>
  <line x1="12" y1="4" x2="12" y2="20" stroke-width="1" stroke-opacity="0.4"/>
  <g clip-path="url(#right-half)" transform="translate(1, 0)">
    <path d="M12 3a9 9 0 1 0 9 9c0-.46-.04-.92-.1-1.36a5.389 5.389 0 0 1-4.4 2.26 5.403 5.403 0 0 1-3.14-9.8c-.44-.06-.9-.1-1.36-.1z"/>
  </g>
</svg>
