<svg xmlns="http://www.w3.org/2000/svg" viewBox="0 0 256 256"><defs><style>.cls-1{fill:#fff;}</style></defs><g id="Layer_3" data-name="Layer 3"><path class="cls-1" d="M204.68,59.29H156.57a5.13,5.13,0,1,0,0,10.26h48.11a5.13,5.13,0,0,0,0-10.26Z"/><path class="cls-1" d="M204.68,90.07H156.57a5.14,5.14,0,0,0,0,10.27h48.11a5.14,5.14,0,0,0,0-10.27Z"/><path class="cls-1" d="M204.68,120.86H156.57a5.14,5.14,0,0,0,0,10.27h48.11a5.14,5.14,0,0,0,0-10.27Z"/><path class="cls-1" d="M235.76,1H20.24A19.26,19.26,0,0,0,1,20.24V170.17a19.26,19.26,0,0,0,19.24,19.24h83.24V207L70.54,223.48a5.13,5.13,0,0,0-2.84,4.59v21.8A5.13,5.13,0,0,0,72.83,255H183.17a5.13,5.13,0,0,0,5.13-5.13v-21.8a5.13,5.13,0,0,0-2.84-4.59L152.52,207V189.41h83.24A19.26,19.26,0,0,0,255,170.17V20.24A19.26,19.26,0,0,0,235.76,1ZM145.09,214.78,178,231.24v13.5H78v-13.5l33-16.46a5.14,5.14,0,0,0,2.84-4.59V189.41h28.51v20.78A5.13,5.13,0,0,0,145.09,214.78Zm99.65-44.61a9,9,0,0,1-9,9H20.24a9,9,0,0,1-9-9V20.24a9,9,0,0,1,9-9H235.76a9,9,0,0,1,9,9Z"/><path class="cls-1" d="M102,71.05s0-.06,0-.08a4.63,4.63,0,0,0-.09-.92h0v0a5.12,5.12,0,0,0-4.13-4.09l-39.5-11.3-.14,0-.08,0-.42,0c-.16,0-.32,0-.48,0h-.07a3.55,3.55,0,0,0-.56.06h0a3.62,3.62,0,0,0-.46.06h0l-.18,0a7.08,7.08,0,0,0-.78.25h0l-.35.2h0a5.05,5.05,0,0,0-.51.28h0c-.11.08-.21.18-.32.27h0a5.08,5.08,0,0,0-1.52,2h0a5.18,5.18,0,0,0-.29,1s0,0,0,.06a2.83,2.83,0,0,0,0,.41l0,.27c0,.07,0,.14,0,.21h0v71.15h0c0,.07,0,.14,0,.21l0,.27a2.83,2.83,0,0,0,0,.41s0,0,0,.06a5.18,5.18,0,0,0,.29,1h0a5.1,5.1,0,0,0,1,1.53.64.64,0,0,0,.1.13h0a4.82,4.82,0,0,0,.43.36h0l.32.26h0a5.05,5.05,0,0,0,.51.28h0l.35.2h0a5.44,5.44,0,0,0,.78.25l.18.06h0a3.59,3.59,0,0,0,.46.05h0a3.55,3.55,0,0,0,.56.06h.07c.16,0,.32,0,.48,0l.42,0,.08,0,.14,0,39.5-11.31a5.12,5.12,0,0,0,4.13-4.09v0h0a4.6,4.6,0,0,0,.09-.91s0-.06,0-.08v0h0V71.07h0Zm-39.72-5.3L91.74,75.3v39.81l-29.46,9.55Z"/></g></svg>