<svg width="19" height="17" viewBox="0 0 19 17" fill="none" xmlns="http://www.w3.org/2000/svg">
<path fill-rule="evenodd" clip-rule="evenodd" d="M5.25 0H13.25C16.007 0 18.25 2.243 18.25 5V12C18.25 14.757 16.007 17 13.25 17H5.25C2.493 17 0.25 14.757 0.25 12V5C0.25 2.243 2.493 0 5.25 0ZM13.25 15C14.904 15 16.25 13.654 16.25 12V5C16.25 3.346 14.904 2 13.25 2H5.25C3.596 2 2.25 3.346 2.25 5V9V12C2.25 13.654 3.596 15 5.25 15H8.25H13.25ZM8.25 15C7.69772 15 7.25 14.5523 7.25 14C7.25 13.4477 7.69772 13 8.25 13C8.80228 13 9.25 13.4477 9.25 14C9.25 14.5523 8.80228 15 8.25 15ZM2.25 9C2.25 8.45 2.7 8 3.26 8C3.81 8 4.25 8.45 4.25 9C4.25 9.55 3.81 10 3.26 10C2.7 10 2.25 9.55 2.25 9ZM9.25 4H13.25C13.3814 4.00013 13.5115 4.02616 13.6328 4.0766C13.7542 4.12704 13.8644 4.2009 13.9572 4.29395C14.0499 4.38701 14.1235 4.49744 14.1735 4.61893C14.2236 4.74042 14.2493 4.87059 14.249 5.002V8.998C14.2532 9.13192 14.2305 9.26532 14.1822 9.39028C14.1339 9.51525 14.0609 9.62923 13.9677 9.72546C13.8745 9.82168 13.7629 9.89819 13.6395 9.95044C13.5161 10.0027 13.3835 10.0296 13.2495 10.0296C13.1155 10.0296 12.9829 10.0027 12.8595 9.95044C12.7361 9.89819 12.6245 9.82168 12.5313 9.72546C12.4381 9.62923 12.3651 9.51525 12.3168 9.39028C12.2685 9.26532 12.2458 9.13192 12.25 8.998V7.42L10.959 8.715C10.8664 8.80813 10.7562 8.88198 10.6348 8.93227C10.5135 8.98256 10.3834 9.0083 10.252 9.008C10.0543 9.00712 9.86121 8.94783 9.69709 8.83756C9.53296 8.72729 9.40509 8.57096 9.32954 8.38824C9.25399 8.20551 9.23413 8.00453 9.27247 7.81055C9.31081 7.61657 9.40562 7.43825 9.545 7.298L10.838 6.003H9.25C9.11859 6.003 8.98848 5.9771 8.86709 5.92678C8.7457 5.87647 8.63541 5.80272 8.54254 5.70975C8.44967 5.61679 8.37603 5.50643 8.32583 5.38499C8.27564 5.26355 8.24987 5.13341 8.25 5.002C8.25 4.448 8.698 4 9.25 4ZM5.305 8.68C5.485 8.16 6.045 7.88 6.575 8.05C7.095 8.23 7.375 8.8 7.195 9.32C7.15399 9.44434 7.08879 9.55934 7.00316 9.65838C6.91753 9.75743 6.81316 9.83856 6.69606 9.89712C6.57895 9.95567 6.45142 9.99048 6.32081 9.99956C6.1902 10.0086 6.05908 9.99179 5.935 9.95C5.81006 9.90825 5.69459 9.84223 5.59524 9.75573C5.49589 9.66922 5.4146 9.56394 5.35606 9.44593C5.29752 9.32792 5.26287 9.1995 5.25411 9.06806C5.24535 8.93662 5.26264 8.80474 5.305 8.68ZM9.25 11C9.25 11.5523 8.80228 12 8.25 12C7.69772 12 7.25 11.5523 7.25 11C7.25 10.4477 7.69772 10 8.25 10C8.80228 10 9.25 10.4477 9.25 11Z" fill="currentColor"/>
</svg>
