<svg width="19" height="18" viewBox="0 0 19 18" fill="none" xmlns="http://www.w3.org/2000/svg">
<path d="M9.33325 0C4.37125 0 0.333252 4.037 0.333252 9C0.333252 13.963 4.37125 18 9.33325 18C14.2963 18 18.3333 13.963 18.3333 9C18.3333 4.037 14.2953 0 9.33325 0ZM16.2533 8H13.4993C13.3493 5.68 12.6943 3.836 11.9263 2.504C13.0655 2.96111 14.0648 3.70933 14.8241 4.67383C15.5835 5.63832 16.0763 6.78528 16.2533 8ZM9.29925 15.632C8.60425 14.845 7.39725 13.056 7.17325 10H11.4933C11.2613 12.964 10.0453 14.781 9.30025 15.632H9.29925ZM7.17425 8C7.40625 5.036 8.62225 3.219 9.36725 2.368C10.0623 3.155 11.2693 4.944 11.4943 8H7.17425ZM6.84325 2.466C6.07625 3.736 5.33325 5.564 5.16925 8H2.41325C2.59323 6.76711 3.09855 5.60446 3.8772 4.63177C4.65584 3.65908 5.67966 2.9115 6.84325 2.466ZM2.41325 10H5.16725C5.31725 12.32 5.97225 14.164 6.74025 15.496C5.601 15.0389 4.60172 14.2907 3.84238 13.3262C3.08303 12.3617 2.59023 11.2147 2.41325 10ZM11.8233 15.534C12.5903 14.264 13.3333 12.436 13.4973 10H16.2533C16.0733 11.2329 15.568 12.3955 14.7893 13.3682C14.0107 14.3409 12.9868 15.0885 11.8233 15.534Z" fill="#E2E4FF"/>
</svg>
