<svg width="22" height="23" viewBox="0 0 22 23" fill="none" xmlns="http://www.w3.org/2000/svg">
<g clip-path="url(#clip0_248_1972)">
<path d="M20.2843 1.17969L1.10092 6.90274C1.0423 6.92034 0.990322 6.95514 0.951711 7.00263C0.913101 7.05012 0.889642 7.10811 0.884374 7.16909C0.879106 7.23007 0.892272 7.29122 0.922165 7.34463C0.952059 7.39804 0.997303 7.44124 1.05203 7.46863L5.89203 9.88496L20.2843 1.17969Z" fill="currentColor"/>
<path d="M9.54076 14.1612L6.15887 12.2637V16.9319C6.15887 17.0151 6.18264 17.0965 6.22738 17.1665C6.27213 17.2366 6.33598 17.2924 6.41141 17.3273C6.48683 17.3623 6.57068 17.3749 6.65306 17.3638C6.73544 17.3526 6.8129 17.3181 6.87632 17.2644L9.17593 15.3278C9.26542 14.9296 9.38744 14.5394 9.54076 14.1612Z" fill="currentColor"/>
<path d="M16.5005 9.48361C17.0824 9.48556 17.6622 9.55508 18.2281 9.69078L21.7787 1.94434L7.99933 10.9081L10.6748 12.2526C11.3787 11.3867 12.2669 10.6888 13.2748 10.2098C14.2826 9.73081 15.3846 9.48271 16.5005 9.48361Z" fill="currentColor"/>
<path d="M16.501 11.5615C15.4253 11.5615 14.3737 11.8805 13.4793 12.4781C12.5849 13.0758 11.8877 13.9252 11.4761 14.919C11.0644 15.9129 10.9567 17.0064 11.1666 18.0615C11.3764 19.1165 11.8944 20.0856 12.6551 20.8463C13.4157 21.6069 14.3848 22.1249 15.4399 22.3348C16.4949 22.5447 17.5885 22.4369 18.5823 22.0253C19.5762 21.6136 20.4256 20.9165 21.0232 20.0221C21.6209 19.1277 21.9399 18.0761 21.9399 17.0004C21.9399 15.5579 21.3668 14.1745 20.3468 13.1545C19.3268 12.1345 17.9434 11.5615 16.501 11.5615ZM15.0722 20.3077L12.5495 17.7857C12.4922 17.7284 12.4601 17.6507 12.4601 17.5697C12.4601 17.4886 12.4922 17.4109 12.5495 17.3536L13.1826 16.7205C13.2399 16.6632 13.3176 16.6311 13.3987 16.6311C13.4797 16.6311 13.5574 16.6632 13.6147 16.7205L15.2836 18.3895L19.0151 14.658C19.0724 14.6007 19.1501 14.5686 19.2311 14.5686C19.3121 14.5686 19.3898 14.6007 19.4471 14.658L20.0845 15.2954C20.1418 15.3527 20.174 15.4304 20.174 15.5114C20.174 15.5925 20.1418 15.6702 20.0845 15.7275L15.5012 20.3108C15.4436 20.3667 15.3663 20.3978 15.2861 20.3972C15.2058 20.3967 15.129 20.3645 15.0722 20.3077Z" fill="currentColor"/>
</g>
<defs>
<clipPath id="clip0_248_1972">
<rect width="22" height="22" fill="white" transform="translate(0 0.5)"/>
</clipPath>
</defs>
</svg>
