<svg id="Layer_1" data-name="Layer 1" xmlns="http://www.w3.org/2000/svg" viewBox="0 0 180 160"><defs><style>.cls-1,.cls-10{fill:#fff;}.cls-1,.cls-10,.cls-15,.cls-17,.cls-2,.cls-3,.cls-4,.cls-5{stroke:#212121;}.cls-1,.cls-16,.cls-2,.cls-3,.cls-4,.cls-5{stroke-width:0.63px;}.cls-15,.cls-16,.cls-17,.cls-2,.cls-9{fill:none;}.cls-3,.cls-8{fill:#3fc4ff;}.cls-4,.cls-6{fill:#2979ff;}.cls-5{fill:#f5f5f5;}.cls-11,.cls-18,.cls-5{fill-rule:evenodd;}.cls-7{fill:#3740ff;}.cls-9{stroke:#3fc4ff;stroke-width:3.79px;}.cls-17,.cls-9{stroke-linecap:round;stroke-linejoin:round;}.cls-10,.cls-15,.cls-17{stroke-width:0.81px;}.cls-11,.cls-19{fill:#dadce0;}.cls-12{fill:#0cce6b;}.cls-13{fill:#ffa400;}.cls-14{fill:#ff4e42;}.cls-15{stroke-dasharray:2.01 2.01;}.cls-16{stroke:#ff4e42;}.cls-18{fill:#212121;}.cls-20{fill:#018642;}</style></defs><path class="cls-1" d="M129.13,55.37H50.24a6,6,0,0,0-6,6v63.71a6,6,0,0,0,6,6h78.89a6,6,0,0,0,6-6V61.41a6,6,0,0,0-6-6Z"/><path class="cls-2" d="M44.21,108.42h90.95M44.21,119.79h90.95M55.58,108.42v22.74M67,108.42v22.74m11.37-22.74v22.74m11.36-22.74v22.74m11.37-22.74v22.74m11.37-22.74v22.74m11.37-22.74v22.74"/><path class="cls-3" d="M112.42,122.32a2.53,2.53,0,1,0-2.53-2.53A2.53,2.53,0,0,0,112.42,122.32Z"/><path class="cls-4" d="M89.68,122.32a2.53,2.53,0,1,0-2.52-2.53A2.53,2.53,0,0,0,89.68,122.32Z"/><path class="cls-5" d="M50.24,55.37h78.89a6.51,6.51,0,0,1,4.26,1.52,4.89,4.89,0,0,1,1.77,3.68V68H44.21V60.57a4.64,4.64,0,0,1,.46-2A5.18,5.18,0,0,1,46,56.89a6.34,6.34,0,0,1,2-1.13,7,7,0,0,1,2.31-.39Z"/><path class="cls-6" d="M56.84,63.58A1.9,1.9,0,1,0,55,61.68,1.9,1.9,0,0,0,56.84,63.58Z"/><path class="cls-7" d="M49.89,63.58A1.9,1.9,0,1,0,48,61.68,1.9,1.9,0,0,0,49.89,63.58Z"/><path class="cls-8" d="M63.79,63.58a1.9,1.9,0,1,0-1.9-1.9A1.89,1.89,0,0,0,63.79,63.58Z"/><path class="cls-9" d="M59.37,87.11h9.29l4.52-7.74,4.27,17.68,5.48-8.84,5.13,8.84,4.78-17.68,6.78,17.68,7.21-17.68,4.25,7.74H120"/><path class="cls-10" d="M89.68,47.79a13.9,13.9,0,1,0-13.89-13.9A13.9,13.9,0,0,0,89.68,47.79Z"/><path class="cls-11" d="M82.11,27.89a1.57,1.57,0,0,1,1.57-1.57h12a1.58,1.58,0,1,1,0,3.15h-12A1.57,1.57,0,0,1,82.11,27.89Zm0,6a1.57,1.57,0,0,1,1.57-1.57h12a1.58,1.58,0,1,1,0,3.15h-12A1.57,1.57,0,0,1,82.11,33.89Zm1.57,4.43a1.58,1.58,0,0,0,0,3.15h12a1.58,1.58,0,1,0,0-3.15Z"/><path class="cls-12" d="M82.11,27.89a1.57,1.57,0,0,1,1.57-1.57h8.53v3.15H83.68A1.57,1.57,0,0,1,82.11,27.89Z"/><path class="cls-13" d="M82.11,33.89a1.57,1.57,0,0,1,1.57-1.57h6v3.15h-6A1.57,1.57,0,0,1,82.11,33.89Z"/><path class="cls-14" d="M82.11,39.89a1.57,1.57,0,0,1,1.57-1.57h3.48v3.15H83.68A1.57,1.57,0,0,1,82.11,39.89Z"/><path class="cls-15" d="M89.68,55.37V47.79m45.48,40.42h10.1"/><path class="cls-10" d="M159.16,102.11a13.9,13.9,0,1,0-13.9-13.9A13.9,13.9,0,0,0,159.16,102.11Z"/><path class="cls-14" d="M159.16,90.74a2.53,2.53,0,1,0-2.53-2.53A2.52,2.52,0,0,0,159.16,90.74Z"/><path class="cls-2" d="M145.26,88.21h3.48m10.42-13.89v3.47m13.89,10.42h-3.47m-20.26-9.84,2.31,2.31M169,78.37l-2.32,2.31"/><path class="cls-16" d="M159.16,88.21l9.47-4.42"/><path class="cls-10" d="M39.16,140A20.21,20.21,0,1,0,19,119.79,20.21,20.21,0,0,0,39.16,140Z"/><path class="cls-17" d="M27.16,119.49,34,114.74l4.3,3,9.09-5.86"/><path class="cls-18" d="M49.91,110.43l-2.63,4.44-2.52-4.12,5.15-.32Z"/><path class="cls-8" d="M38.53,122.32h2.52v7.57H38.53Z"/><path class="cls-6" d="M42.32,119.79h2.52v10.1H42.32Z"/><path class="cls-7" d="M46.11,117.26h2.52v12.63H46.11Z"/><circle class="cls-19" cx="32.21" cy="126.11" r="3.79"/><path class="cls-12" d="M32.21,129.89a3.79,3.79,0,1,1,0-7.57Z"/><path class="cls-20" d="M32.21,122.32a3.81,3.81,0,0,1,3.07,1.56l-3.07,2.23Z"/></svg>