<svg id="Layer_1" data-name="Layer 1" xmlns="http://www.w3.org/2000/svg" viewBox="0 0 150 160"><defs><style>.cls-1{fill:none;}.cls-2{fill:#181616;fill-rule:evenodd;}</style></defs><rect class="cls-1" x="-4.76" y="5" width="160" height="150" transform="translate(155.24 4.76) rotate(90)"/><path class="cls-2" d="M75,21.48A60,60,0,0,0,56,138.42c3,.55,4.1-1.31,4.1-2.9,0-1.42-.05-5.19-.08-10.2-16.69,3.62-20.21-8-20.21-8-2.73-6.94-6.66-8.78-6.66-8.78-5.45-3.72.41-3.65.41-3.65,6,.43,9.19,6.18,9.19,6.18,5.35,9.17,14,6.53,17.46,5,.54-3.88,2.09-6.52,3.81-8-13.32-1.52-27.33-6.66-27.33-29.65a23.24,23.24,0,0,1,6.17-16.11c-.61-1.51-2.67-7.61.59-15.87,0,0,5-1.62,16.5,6.15a56.85,56.85,0,0,1,30,0c11.46-7.77,16.49-6.15,16.49-6.15,3.27,8.26,1.21,14.36.59,15.87a23.15,23.15,0,0,1,6.17,16.11c0,23-14,28.12-27.39,29.6C88,109.8,90,113.47,90,119.06c0,8-.07,14.5-.07,16.46,0,1.61,1.08,3.47,4.12,2.89A60,60,0,0,0,75,21.48Z"/></svg>