<svg width="16" height="18" viewBox="0 0 16 18" fill="none" xmlns="http://www.w3.org/2000/svg">
<path d="M8.00007 10.5C10.7571 10.5 13.0001 8.257 13.0001 5.5C13.0001 2.743 10.7571 0.5 8.00007 0.5C5.24307 0.5 3.00007 2.743 3.00007 5.5C3.00007 8.257 5.24307 10.5 8.00007 10.5ZM8.00007 2.5C9.65407 2.5 11.0001 3.846 11.0001 5.5C11.0001 7.154 9.65407 8.5 8.00007 8.5C6.34607 8.5 5.00007 7.154 5.00007 5.5C5.00007 3.846 6.34607 2.5 8.00007 2.5ZM8.00007 11.5C4.70007 11.5 1.68407 13.229 0.127072 16.012C-0.00212018 16.2436 -0.0341394 16.517 0.038043 16.7721C0.110225 17.0273 0.28071 17.2434 0.512072 17.373C0.993072 17.64 1.60207 17.469 1.87307 16.988C3.07607 14.837 5.42307 13.5 8.00007 13.5C10.5771 13.5 12.9241 14.837 14.1271 16.988C14.2624 17.208 14.4774 17.3672 14.7274 17.4324C14.9773 17.4975 15.2428 17.4635 15.4682 17.3375C15.6937 17.2114 15.8617 17.0032 15.9371 16.7561C16.0126 16.5091 15.9896 16.2425 15.8731 16.012C14.3161 13.229 11.3001 11.5 8.00007 11.5Z" fill="currentColor"/>
</svg>
