<svg width="19" height="18" viewBox="0 0 19 18" fill="none" xmlns="http://www.w3.org/2000/svg">
<path fill-rule="evenodd" clip-rule="evenodd" d="M13.75 4H17.75C18.0152 4 18.2696 4.10536 18.4571 4.29289C18.6446 4.48043 18.75 4.73478 18.75 5C18.75 5.26522 18.6446 5.51957 18.4571 5.70711C18.2696 5.89464 18.0152 6 17.75 6H16.75V15C16.75 16.654 15.404 18 13.75 18H5.75C4.096 18 2.75 16.654 2.75 15V6H1.75C1.48478 6 1.23043 5.89464 1.04289 5.70711C0.855357 5.51957 0.75 5.26522 0.75 5C0.75 4.73478 0.855357 4.48043 1.04289 4.29289C1.23043 4.10536 1.48478 4 1.75 4H5.75C5.75 1.794 7.544 0 9.75 0C11.956 0 13.75 1.794 13.75 4ZM11.75 4C11.75 2.897 10.853 2 9.75 2C8.647 2 7.75 2.897 7.75 4H11.75ZM14.4571 15.7071C14.6446 15.5196 14.75 15.2652 14.75 15V6H4.75V15C4.75 15.2652 4.85536 15.5196 5.04289 15.7071C5.23043 15.8946 5.48478 16 5.75 16H13.75C14.0152 16 14.2696 15.8946 14.4571 15.7071ZM7.04289 8.29289C7.23043 8.10536 7.48478 8 7.75 8C8.01522 8 8.26957 8.10536 8.45711 8.29289C8.64464 8.48043 8.75 8.73478 8.75 9V13C8.75 13.2652 8.64464 13.5196 8.45711 13.7071C8.26957 13.8946 8.01522 14 7.75 14C7.48478 14 7.23043 13.8946 7.04289 13.7071C6.85536 13.5196 6.75 13.2652 6.75 13V9C6.75 8.73478 6.85536 8.48043 7.04289 8.29289ZM11.0429 8.29289C11.2304 8.10536 11.4848 8 11.75 8C12.0152 8 12.2696 8.10536 12.4571 8.29289C12.6446 8.48043 12.75 8.73478 12.75 9V13C12.75 13.2652 12.6446 13.5196 12.4571 13.7071C12.2696 13.8946 12.0152 14 11.75 14C11.4848 14 11.2304 13.8946 11.0429 13.7071C10.8554 13.5196 10.75 13.2652 10.75 13V9C10.75 8.73478 10.8554 8.48043 11.0429 8.29289Z" fill="currentColor"/>
</svg>
