<svg width="16" height="18" viewBox="0 0 16 18" fill="none" xmlns="http://www.w3.org/2000/svg">
<path d="M5 17.5H11C13.757 17.5 16 15.257 16 12.5V7.32801C16 6.52801 15.688 5.77301 15.121 5.20701L11.293 1.37901C11.015 1.09949 10.6843 0.877888 10.32 0.727009C9.95579 0.576131 9.56525 0.498976 9.171 0.50001H5C2.243 0.50001 0 2.74301 0 5.50001V12.5C0 15.257 2.243 17.5 5 17.5ZM10 2.91401L13.586 6.50001H11C10.449 6.50001 10 6.05201 10 5.50001V2.91401ZM2 5.50001C2 3.84601 3.346 2.50001 5 2.50001H8V5.50001C8 7.15401 9.346 8.50001 11 8.50001H14V12.5C14 14.154 12.654 15.5 11 15.5H5C3.346 15.5 2 14.154 2 12.5V5.50001Z" fill="currentColor"/>
</svg>
