<svg width="10" height="17" viewBox="0 0 10 17" fill="none" xmlns="http://www.w3.org/2000/svg">
<path d="M2.52776 0.695704C2.66015 0.28128 3.04528 0 3.48034 0H7.88148C8.68018 0 9.15657 0.890145 8.71353 1.5547L6.78647 4.4453C6.34343 5.10986 6.81982 6 7.61852 6H8.55753C9.41486 6 9.87471 7.00819 9.31265 7.65558L1.27085 16.9184C1.22585 16.9702 1.16057 17 1.09192 17C0.926481 17 0.811967 16.8348 0.870057 16.6798L3.24333 10.3511C3.48849 9.69737 3.00521 9 2.307 9H1.24423C0.566942 9 0.0855549 8.34087 0.29165 7.6957L2.52776 0.695704Z" fill="currentColor"/>
</svg>
