<svg width="18" height="18" viewBox="0 0 18 18" fill="none" xmlns="http://www.w3.org/2000/svg">
    <path d="M16.001 7.99999H4.41503L6.70803 5.70699C6.80354 5.61474 6.87973 5.5044 6.93214 5.38239C6.98455 5.26039 7.01213 5.12917 7.01329 4.99639C7.01444 4.86361 6.98914 4.73193 6.93886 4.60904C6.88858 4.48614 6.81432 4.37449 6.72043 4.28059C6.62654 4.1867 6.51488 4.11245 6.39199 4.06217C6.26909 4.01189 6.13741 3.98659 6.00463 3.98774C5.87185 3.98889 5.74063 4.01648 5.61863 4.06889C5.49663 4.1213 5.38628 4.19748 5.29403 4.29299L1.29403 8.29299C1.20085 8.38564 1.1269 8.4958 1.07644 8.61714C1.02598 8.73847 1 8.86858 1 8.99999C1 9.1314 1.02598 9.26151 1.07644 9.38284C1.1269 9.50418 1.20085 9.61434 1.29403 9.70699L5.29403 13.707C5.38628 13.8025 5.49663 13.8787 5.61863 13.9311C5.74063 13.9835 5.87185 14.0111 6.00463 14.0122C6.13741 14.0134 6.26909 13.9881 6.39199 13.9378C6.51488 13.8875 6.62654 13.8133 6.72043 13.7194C6.81432 13.6255 6.88858 13.5138 6.93886 13.3909C6.98914 13.268 7.01444 13.1364 7.01329 13.0036C7.01213 12.8708 6.98455 12.7396 6.93214 12.6176C6.87973 12.4956 6.80354 12.3852 6.70803 12.293L4.41503 9.99999H16.001C16.2663 9.99999 16.5206 9.89463 16.7081 9.7071C16.8957 9.51956 17.001 9.26521 17.001 8.99999C17.001 8.73477 16.8957 8.48042 16.7081 8.29288C16.5206 8.10535 16.2663 7.99999 16.001 7.99999Z" fill="currentColor"/>
</svg>
