<svg width="19" height="18" viewBox="0 0 19 18" fill="none" xmlns="http://www.w3.org/2000/svg">
<path d="M18.635 2.30806L17.375 1.67806C17.2415 1.61076 17.1334 1.50199 17.067 1.36806L16.437 0.106057C16.4179 0.0734828 16.3907 0.0464617 16.358 0.0276831C16.3253 0.00890451 16.2882 -0.000976562 16.2505 -0.000976562C16.2127 -0.000976562 16.1757 0.00890451 16.143 0.0276831C16.1102 0.0464617 16.083 0.0734828 16.064 0.106057L15.434 1.36806C15.3676 1.50203 15.2595 1.61082 15.126 1.67806L13.866 2.30806C13.8324 2.32691 13.8042 2.35394 13.7839 2.38664C13.7636 2.41933 13.752 2.45663 13.75 2.49506C13.7521 2.53331 13.7639 2.5704 13.7842 2.60291C13.8044 2.63542 13.8326 2.6623 13.866 2.68106L15.126 3.31206C15.2594 3.37903 15.3674 3.48746 15.434 3.62106L16.064 4.88306C16.0809 4.91816 16.1073 4.94778 16.1403 4.96851C16.1733 4.98924 16.2115 5.00024 16.2505 5.00024C16.2894 5.00024 16.3276 4.98924 16.3606 4.96851C16.3936 4.94778 16.4201 4.91816 16.437 4.88306L17.067 3.62106C17.1335 3.48746 17.2416 3.37903 17.375 3.31206L18.635 2.68206C18.6682 2.66294 18.6961 2.63582 18.7162 2.60316C18.7363 2.5705 18.7479 2.53334 18.75 2.49506C18.7479 2.45677 18.7363 2.41961 18.7162 2.38695C18.6961 2.35429 18.6682 2.32717 18.635 2.30806ZM4.84997 4.65006C4.95697 4.70306 5.04397 4.79006 5.09697 4.89706L5.60097 5.90706C5.61425 5.9355 5.63538 5.95956 5.66186 5.97642C5.68834 5.99328 5.71908 6.00224 5.75047 6.00224C5.78186 6.00224 5.8126 5.99328 5.83909 5.97642C5.86557 5.95956 5.88669 5.9355 5.89997 5.90706L6.40297 4.89706C6.45634 4.79011 6.54303 4.70342 6.64997 4.65006L7.65797 4.14606C7.68468 4.1308 7.7071 4.10906 7.72318 4.08284C7.73926 4.05662 7.74848 4.02678 7.74997 3.99606C7.74839 3.96536 7.73914 3.93555 7.72306 3.90935C7.70699 3.88314 7.68462 3.86138 7.65797 3.84606L6.64997 3.34206C6.54311 3.28857 6.45646 3.20191 6.40297 3.09506L5.89897 2.08506C5.88368 2.05914 5.86189 2.03766 5.83576 2.02274C5.80963 2.00781 5.78006 1.99997 5.74997 1.99997C5.71988 1.99997 5.69031 2.00781 5.66418 2.02274C5.63805 2.03766 5.61626 2.05914 5.60097 2.08506L5.09697 3.09506C5.04375 3.20176 4.95746 3.2884 4.85097 3.34206L3.84297 3.84606C3.81602 3.86112 3.79334 3.88279 3.77707 3.90903C3.7608 3.93527 3.75148 3.96522 3.74997 3.99606C3.75164 4.02672 3.76105 4.05647 3.77731 4.08252C3.79357 4.10857 3.81616 4.13008 3.84297 4.14506L4.84997 4.65006ZM16.65 11.3421C16.5431 11.2886 16.4565 11.2019 16.403 11.0951L15.899 10.0851C15.8837 10.0591 15.8619 10.0377 15.8358 10.0227C15.8096 10.0078 15.7801 9.99997 15.75 9.99997C15.7199 9.99997 15.6903 10.0078 15.6642 10.0227C15.638 10.0377 15.6163 10.0591 15.601 10.0851L15.097 11.0951C15.0437 11.2018 14.9575 11.2884 14.851 11.3421L13.843 11.8461C13.816 11.8611 13.7933 11.8828 13.7771 11.909C13.7608 11.9353 13.7515 11.9652 13.75 11.9961C13.7516 12.0267 13.761 12.0565 13.7773 12.0825C13.7936 12.1086 13.8162 12.1301 13.843 12.1451L14.851 12.6501C14.957 12.7031 15.044 12.7901 15.097 12.8971L15.601 13.9071C15.6143 13.9355 15.6354 13.9596 15.6619 13.9764C15.6883 13.9933 15.7191 14.0022 15.7505 14.0022C15.7819 14.0022 15.8126 13.9933 15.8391 13.9764C15.8656 13.9596 15.8867 13.9355 15.9 13.9071L16.403 12.8971C16.4563 12.7901 16.543 12.7034 16.65 12.6501L17.658 12.1451C17.6845 12.1299 17.7069 12.1083 17.7229 12.0823C17.739 12.0562 17.7483 12.0266 17.75 11.9961C17.7484 11.9654 17.7391 11.9355 17.7231 11.9093C17.707 11.8831 17.6846 11.8614 17.658 11.8461L16.65 11.3421ZM15.457 5.60206L13.15 3.29306C12.9624 3.10559 12.7081 3.00027 12.443 3.00027C12.1778 3.00027 11.9235 3.10559 11.736 3.29306L1.51597 13.5111C1.27168 13.7536 1.07813 14.0424 0.946617 14.3605C0.815102 14.6787 0.748254 15.0198 0.749971 15.3641C0.750971 16.0641 1.02597 16.7191 1.55697 17.2461C2.06297 17.7481 2.72697 18.0001 3.39097 18.0001C4.05797 18.0001 4.72497 17.7461 5.23197 17.2401L15.457 7.01506C15.6444 6.82753 15.7498 6.57322 15.7498 6.30806C15.7498 6.04289 15.6444 5.78858 15.457 5.60106V5.60206ZM3.81797 15.8251C3.58397 16.0591 3.19997 16.0601 2.92997 15.7921C2.87256 15.7354 2.82696 15.6679 2.79585 15.5935C2.76473 15.5191 2.74871 15.4392 2.74871 15.3586C2.74871 15.2779 2.76473 15.198 2.79585 15.1236C2.82696 15.0492 2.87256 14.9817 2.92997 14.9251L8.52197 9.33406L9.41497 10.2291L3.81797 15.8251ZM10.83 8.81506L9.93597 7.92006L12.442 5.41406L13.336 6.30906L10.83 8.81506Z" fill="currentColor"/>
</svg>
