<svg xmlns="http://www.w3.org/2000/svg" viewBox="0 0 256 256"><defs><style>.cls-1{fill:#fff;}</style></defs><g id="Layer_3" data-name="Layer 3"><path class="cls-1" d="M166.38,51.15h43.81a5.14,5.14,0,1,0,0-10.27H166.38a5.14,5.14,0,0,0,0,10.27Z"/><path class="cls-1" d="M166.38,81.93h43.81a5.13,5.13,0,1,0,0-10.26H166.38a5.13,5.13,0,1,0,0,10.26Z"/><path class="cls-1" d="M166.38,112.72h43.81a5.13,5.13,0,1,0,0-10.26H166.38a5.13,5.13,0,1,0,0,10.26Z"/><path class="cls-1" d="M197.5,213.82l11.41-11.41a5.13,5.13,0,0,0,0-7.25l-51.09-51.09a5.12,5.12,0,0,0-3.62-1.5H6.13A5.13,5.13,0,0,0,1,147.7V249.87A5.13,5.13,0,0,0,6.13,255H154.2a5.12,5.12,0,0,0,3.62-1.5l39.68-39.68ZM154.7,242.1a19,19,0,0,1,3.11-22.66,5.12,5.12,0,0,0,0-7.26,19,19,0,0,1,0-26.79,5.12,5.12,0,0,0,0-7.26,18.9,18.9,0,0,1-3.11-22.67l34,34v18.56ZM11.26,152.83H144.54a29.32,29.32,0,0,0,2.93,28.93,29.31,29.31,0,0,0,0,34.05,29.32,29.32,0,0,0-2.93,28.93H11.26Z"/><path class="cls-1" d="M234.47,1h-180A20.55,20.55,0,0,0,33.94,21.53V122.05a5.13,5.13,0,1,0,10.26,0V21.53A10.28,10.28,0,0,1,54.46,11.26h180a10.29,10.29,0,0,1,10.27,10.27V234.47a10.29,10.29,0,0,1-10.27,10.27h-44a5.13,5.13,0,0,0,0,10.26h44A20.55,20.55,0,0,0,255,234.47V21.53A20.55,20.55,0,0,0,234.47,1Z"/><path class="cls-1" d="M79.46,110.45l5.05-15.58h38.28l5,15.58a5.13,5.13,0,0,0,4.88,3.55,5.06,5.06,0,0,0,1.58-.25,5.12,5.12,0,0,0,3.3-6.46L116.83,43.15A5.13,5.13,0,0,0,112,39.6H95.35a5.14,5.14,0,0,0-4.88,3.55L69.7,107.29a5.13,5.13,0,1,0,9.76,3.16ZM99.08,49.87h9.14l11.25,34.74H87.83Z"/></g></svg>