<svg width="22" height="22" viewBox="0 0 22 22" fill="none" xmlns="http://www.w3.org/2000/svg">
<g clip-path="url(#clip0_248_1940)">
<path d="M11.7567 16.3775L17.308 19.4715C17.3668 19.501 17.4308 19.5186 17.4963 19.5234C17.5619 19.5281 17.6277 19.5199 17.6901 19.4992C17.7525 19.4785 17.8102 19.4458 17.8599 19.4028C17.9096 19.3598 17.9504 19.3074 17.9799 19.2487L21.9433 9.38086L11.7567 16.3775Z" fill="currentColor"/>
<path d="M9.82791 16.9668V21.5116C9.82789 21.57 9.84458 21.6271 9.876 21.6763C9.90742 21.7255 9.95227 21.7646 10.0052 21.7891C10.0582 21.8136 10.1171 21.8224 10.1749 21.8145C10.2327 21.8066 10.287 21.7823 10.3315 21.7445L13.5826 18.9792L9.82791 16.9668Z" fill="currentColor"/>
<path d="M4.68234 14.6671H2.44445V2.44488H19.5556V7.21154L20.7533 6.83816H20.7778V1.83377C20.7778 1.67169 20.7134 1.51625 20.5988 1.40165C20.4842 1.28704 20.3288 1.22266 20.1667 1.22266H1.83334C1.67126 1.22266 1.51582 1.28704 1.40122 1.40165C1.28661 1.51625 1.22223 1.67169 1.22223 1.83377V15.2782C1.22223 15.4403 1.28661 15.5957 1.40122 15.7103C1.51582 15.8249 1.67126 15.8893 1.83334 15.8893H7.12984L4.68234 14.6671Z" fill="currentColor"/>
<path d="M21.2617 8.27148L5.54817 13.1048C5.49992 13.1189 5.45707 13.1474 5.42523 13.1863C5.39338 13.2252 5.37401 13.2728 5.36965 13.3229C5.3653 13.373 5.37615 13.4233 5.40081 13.4671C5.42546 13.5109 5.46276 13.5463 5.50784 13.5686L9.85528 15.6947L21.2617 8.27148Z" fill="currentColor"/>
</g>
<defs>
<clipPath id="clip0_248_1940">
<rect width="22" height="22" fill="white"/>
</clipPath>
</defs>
</svg>
