<svg width="18" height="16" viewBox="0 0 18 16" fill="none" xmlns="http://www.w3.org/2000/svg">
<path d="M17 9.87V5C17 2.243 14.757 0 12 0H6.00004C3.24304 0 1.00004 2.243 1.00004 5V9.87L0.504037 11.76C0.298874 12.2078 0.20793 12.6996 0.239342 13.1912C0.270754 13.6828 0.423543 14.1589 0.684037 14.577C0.951569 15.0132 1.32686 15.3733 1.7738 15.6225C2.22075 15.8717 2.72431 16.0017 3.23604 16H14.764C15.2758 16.0017 15.7793 15.8717 16.2263 15.6225C16.6732 15.3733 17.0485 15.0132 17.316 14.577C17.5764 14.159 17.7291 13.6831 17.7605 13.1917C17.7919 12.7002 17.701 12.2087 17.496 11.761L17 9.87ZM3.00004 5C3.00004 3.346 4.34604 2 6.00004 2H12C13.654 2 15 3.346 15 5V9H3.00004V5ZM15.615 13.525C15.5265 13.6709 15.4017 13.7914 15.2527 13.8746C15.1037 13.9579 14.9357 14.0011 14.765 14H3.23404C3.06338 14.0011 2.89536 13.9579 2.74638 13.8746C2.59741 13.7914 2.47256 13.6709 2.38404 13.525C2.29343 13.3805 2.24183 13.215 2.2343 13.0447C2.22676 12.8743 2.26354 12.7049 2.34104 12.553C2.37104 12.491 2.39604 12.426 2.41404 12.359L2.77004 11H7.00004C6.73482 11 6.48047 11.1054 6.29293 11.2929C6.10539 11.4804 6.00004 11.7348 6.00004 12C6.00004 12.2652 6.10539 12.5196 6.29293 12.7071C6.48047 12.8946 6.73482 13 7.00004 13H11C11.2653 13 11.5196 12.8946 11.7071 12.7071C11.8947 12.5196 12 12.2652 12 12C12 11.7348 11.8947 11.4804 11.7071 11.2929C11.5196 11.1054 11.2653 11 11 11H15.229L15.585 12.36C15.603 12.426 15.627 12.491 15.658 12.553C15.883 13.003 15.703 13.383 15.615 13.525Z" fill="#6B8700"/>
</svg>
