<svg width="18" height="18" viewBox="0 0 18 18" fill="none" xmlns="http://www.w3.org/2000/svg">
    <path d="M12.2936 6.29308L9.00057 9.58608L5.70757 6.29308C5.61532 6.19757 5.50498 6.12139 5.38297 6.06898C5.26097 6.01657 5.12975 5.98898 4.99697 5.98783C4.86419 5.98668 4.73251 6.01198 4.60962 6.06226C4.48672 6.11254 4.37507 6.18679 4.28117 6.28069C4.18728 6.37458 4.11303 6.48623 4.06275 6.60913C4.01247 6.73202 3.98717 6.8637 3.98832 6.99648C3.98947 7.12926 4.01706 7.26048 4.06947 7.38249C4.12188 7.50449 4.19806 7.61483 4.29357 7.70708L8.29357 11.7071C8.38622 11.8003 8.49638 11.8742 8.61772 11.9247C8.73905 11.9751 8.86916 12.0011 9.00057 12.0011C9.13198 12.0011 9.26209 11.9751 9.38342 11.9247C9.50476 11.8742 9.61492 11.8003 9.70757 11.7071L13.7076 7.70708C13.8031 7.61483 13.8793 7.50449 13.9317 7.38249C13.9841 7.26048 14.0117 7.12926 14.0128 6.99648C14.014 6.8637 13.9887 6.73202 13.9384 6.60913C13.8881 6.48623 13.8139 6.37458 13.72 6.28069C13.6261 6.18679 13.5144 6.11254 13.3915 6.06226C13.2686 6.01198 13.1369 5.98668 13.0042 5.98783C12.8714 5.98898 12.7402 6.01657 12.6182 6.06898C12.4962 6.12139 12.3858 6.19757 12.2936 6.29308Z" fill="#000"/>
</svg>
